# xmcd CD database file
# 
# Track frame offsets:
# 	150
# 	9506
# 	23039
# 	35565
# 	48802
# 	61274
# 	73403
# 	88276
# 	105895
# 	117808
# 
# Disc length: 1699 seconds
# 
# Submitted via: Nero 5.5.9.0
# 
# Revision: 0
# Processed by: cddbd v1.4PL0 Copyright (c) Steve Scherf et al.
#
DISCID=7a06a10a
DTITLE=Rusty Wier - Kum-Bak Bar and Grill
DYEAR=1900
DGENRE=
TTITLE0=Kum-Bak Bar And Grill
TTITLE1=Cheryl Doreen
TTITLE2=Daytime Drinkin'
TTITLE3=Wonderful Tonight
TTITLE4=I Kept Thinkin' About You
TTITLE5=Lover Of The Other Side Of The Hill
TTITLE6=Close Your Eyes
TTITLE7=Alibi Lies
TTITLE8=All My Give A Damn Is Gone
TTITLE9=Lone Star Lady
EXTD=
EXTT0=
EXTT1=
EXTT2=
EXTT3=
EXTT4=
EXTT5=
EXTT6=
EXTT7=
EXTT8=
EXTT9=
PLAYORDER=
